<svg height="448.91266pt" viewBox="0 0 448.91266 448.91266" width="448.91266pt" xmlns="http://www.w3.org/2000/svg"><path d="m224.914062 344.914062c-.0625-44.699218 24.757813-85.71875 64.386719-106.40625 39.625-20.683593 87.46875-17.597656 124.109375 8.003907 16.671875-89.792969-27.046875-179.984375-107.863281-222.519531-80.816406-42.539063-179.914063-27.515626-244.492187 37.0625-64.578126 64.578124-79.601563 163.675781-37.0625 244.492187 42.535156 80.816406 132.726562 124.535156 222.519531 107.863281-14.070313-20.070312-21.613281-43.988281-21.597657-68.496094zm12.285157-130.34375-22.628907 22.621094c-3.125 3.125-8.191406 3.125-11.3125 0l-20.289062-20.277344h-78.054688v-16h78.054688l17.945312-17.9375v-94.0625h16v94.0625l20.285157 20.28125c3.125 3.121094 3.125 8.1875 0 11.3125zm-20.285157 138.34375v16h-16v-16zm-115.488281-47.832031 11.320313 11.3125-11.3125 11.316407-11.320313-11.308594zm-11.3125-203.65625 11.320313-11.3125 11.3125 11.320313-11.320313 11.3125zm110.800781-36.511719v-16h16v16zm115.488282 47.832032-11.320313-11.3125 11.3125-11.320313 11.316407 11.3125zm52.511718 104.167968h-16v-16h16zm-160 184c-106.039062 0-192-85.960937-192-192 0-106.039062 85.960938-192 192-192 106.039063 0 192 85.960938 192 192 0 2.796876-.066406 5.597657-.175781 8.34375l-16-.6875c.117188-2.539062.175781-5.097656.175781-7.65625 0-97.203124-78.800781-176-176-176-97.203124 0-176 78.796876-176 176 0 97.199219 78.796876 176 176 176 2.558594 0 5.109376-.058593 7.648438-.167968l.703125 16c-2.769531.109375-5.554687.167968-8.351563.167968zm-144-200v16h-16v-16zm0 0"/><path d="m197.601562 208.914062 11.3125-11.316406 11.316407 11.316406-11.316407 11.3125zm0 0"/><path d="m344.914062 240.914062c-57.4375 0-104 46.5625-104 104s46.5625 104 104 104 104-46.5625 104-104c-.066406-57.410156-46.589843-103.933593-104-104zm-56 112h-16v-16h16zm48-16h16c17.671876 0 32 14.324219 32 32 0 17.671876-14.328124 32-32 32v16h-16v-16c-17.675781 0-32-14.328124-32-32h16c0 8.835938 7.160157 16 16 16h16c8.835938 0 16-7.164062 16-16 0-8.839843-7.164062-16-16-16h-16c-17.675781 0-32-14.328124-32-32 0-17.675781 14.324219-32 32-32v-16h16v16c17.671876 0 32 14.324219 32 32h-16c0-8.839843-7.164062-16-16-16h-16c-8.839843 0-16 7.160157-16 16 0 8.835938 7.160157 16 16 16zm80 16h-16v-16h16zm0 0"/></svg>