<svg height="480pt" viewBox="0 0 480 480" width="480pt" xmlns="http://www.w3.org/2000/svg"><path d="m224 432c-86.144531-.070312-163.3125-53.273438-194.015625-133.757812-30.703125-80.488282-8.570313-171.570313 55.640625-228.996094 64.214844-57.421875 157.195312-69.2812502 233.765625-29.8125 76.566406 39.464844 120.855469 122.078125 111.335937 207.695312l15.914063 1.742188c.902344-8.257813 1.355469-16.5625 1.359375-24.871094 0-123.710938-100.289062-224-224-224s-224 100.289062-224 224 100.289062 224 224 224c8.3125 0 16.617188-.457031 24.878906-1.367188l-1.757812-15.90625c-7.679688.847657-15.398438 1.273438-23.121094 1.273438zm0 0"/><path d="m415.824219 232.34375c.113281-2.742188.175781-5.542969.175781-8.34375 0-106.039062-85.960938-192-192-192s-192 85.960938-192 192 85.960938 192 192 192c2.800781 0 5.585938-.058594 8.351562-.175781l-.703124-16c-2.535157.117187-5.082032.175781-7.648438.175781-97.203125 0-176-78.796875-176-176s78.796875-176 176-176 176 78.796875 176 176c0 2.558594-.054688 5.121094-.167969 7.65625zm0 0"/><path d="m216 64h16v16h-16zm0 0"/><path d="m105.210938 116.515625 11.316406-11.308594 11.308594 11.316407-11.316407 11.3125zm0 0"/><path d="m64 216h16v16h-16zm0 0"/><path d="m105.207031 331.484375 11.308594-11.316406 11.320313 11.308593-11.3125 11.316407zm0 0"/><path d="m216 368h16v16h-16zm0 0"/><path d="m368 216h16v16h-16zm0 0"/><path d="m320.164062 116.527344 11.308594-11.320313 11.320313 11.3125-11.3125 11.316407zm0 0"/><path d="m254.632812 224c0-2.121094-.84375-4.15625-2.34375-5.65625l-20.289062-20.28125v-94.0625h-16v94.0625l-17.945312 17.9375h-78.054688v16h78.054688l20.289062 20.28125c3.125 3.121094 8.1875 3.121094 11.3125 0l22.632812-22.625c1.5-1.5 2.34375-3.535156 2.34375-5.65625zm-30.632812 11.3125-11.3125-11.3125 11.3125-11.3125 11.3125 11.3125zm0 0"/><path d="m352 320h16c8.835938 0 16 7.164062 16 16h16c0-17.671875-14.328125-32-32-32v-16h-16v16c-17.671875 0-32 14.328125-32 32s14.328125 32 32 32h16c8.835938 0 16 7.164062 16 16s-7.164062 16-16 16h-16c-8.835938 0-16-7.164062-16-16h-16c0 17.671875 14.328125 32 32 32v16h16v-16c17.671875 0 32-14.328125 32-32s-14.328125-32-32-32h-16c-8.835938 0-16-7.164062-16-16s7.164062-16 16-16zm0 0"/><path d="m416 352h16v16h-16zm0 0"/><path d="m288 352h16v16h-16zm0 0"/><path d="m360 240c-66.273438 0-120 53.726562-120 120s53.726562 120 120 120 120-53.726562 120-120c-.074219-66.242188-53.757812-119.925781-120-120zm0 224c-57.4375 0-104-46.5625-104-104s46.5625-104 104-104 104 46.5625 104 104c-.066406 57.410156-46.589844 103.933594-104 104zm0 0"/></svg>